<?xml version="1.0" encoding="UTF-8"?>
<svg width="46px" height="46px" viewBox="0 0 46 46" version="1.1" xmlns="http://www.w3.org/2000/svg" xmlns:xlink="http://www.w3.org/1999/xlink">
    <!-- Generator: Sketch 48.2 (47327) - http://www.bohemiancoding.com/sketch -->
    <title>thumbprint</title>
    <desc>Created with Sketch.</desc>
    <defs></defs>
    <g id="Symbols" stroke="none" stroke-width="1" fill="none" fill-rule="evenodd">
        <g id="thumbprint" fill="#D1D1D1">
            <path d="M45.2546449,22.7129274 C45.2546449,21.2714799 45.1207325,19.8650557 44.84398,18.4133072 L44.7361633,17.8549953 L44.721742,17.8549953 C43.4849402,12.3968606 40.2401382,7.46476148 35.7530405,4.25429599 C35.4440118,4.03248201 35.0161786,4.10458872 34.7943646,4.41293075 C34.5739241,4.72127279 34.6439706,5.1504794 34.9523127,5.37091992 C39.3089315,8.48867679 42.4205078,13.3383682 43.4924942,18.676325 L43.5206502,18.8157314 C43.7637528,20.1308204 43.8811838,21.4067659 43.8811838,22.7129274 C43.8811838,23.0920027 44.1881523,23.399658 44.5679143,23.399658 C44.9476764,23.399658 45.2546449,23.0920027 45.2546449,22.7129274 M5.55749661,9.90952237 C8.72538481,5.66484061 13.3402144,2.77164465 18.553873,1.76283742 C19.8744559,1.50393999 21.2362426,1.37346117 22.6000896,1.37346117 C25.8510722,1.37346117 28.9859973,2.10208233 31.9203971,3.53803598 C32.262389,3.70491152 32.6737406,3.56481848 32.8392426,3.22351338 C33.0054314,2.882895 32.8646517,2.47154338 32.5240333,2.30466785 C29.4007826,0.775318833 26.0625852,0 22.6000896,0 C21.1476544,0 19.6972794,0.139406309 18.2915419,0.414785275 C12.7427587,1.48883191 7.82988812,4.5688186 4.45666748,9.08819259 C4.22935966,9.39241424 4.29253887,9.82230759 4.59607379,10.0489287 C4.7196853,10.1409506 4.86321199,10.1855881 5.00605195,10.1855881 C5.21619151,10.1855881 5.42289742,10.0901325 5.55749661,9.90952237 M1.38972868,28.4471278 C1.758503,28.3585396 1.98581083,27.9877051 1.89790931,27.6189308 C1.8841747,27.5619321 1.87044009,27.513861 1.85739221,27.4692235 L1.85876567,27.4692235 L1.71455225,26.6499539 C0.797080182,22.0083419 1.51883403,17.1160732 3.71705864,12.8734516 C3.89148821,12.5369536 3.79534592,12.1221683 3.45884794,11.9477388 C3.12166322,11.7733092 2.77829793,11.9051615 2.60386836,12.2416594 C0.274478205,16.7363111 -0.756304407,21.9183801 0.617156768,26.8415517 L0.617156768,26.8449854 C0.617156768,27.3648404 0.578699855,27.5557515 0.652866758,27.7713849 C0.668661562,27.8180826 0.545050056,27.868214 0.562218321,27.9403207 C0.637758685,28.2541565 0.919318226,28.467043 1.22972045,28.467043 C1.28259871,28.4656696 1.33616369,28.4588023 1.38972868,28.4471278 M17.6377744,44.367603 C23.1274987,37.0511754 24.8106754,30.5265481 23.2696519,22.5501723 C23.1975452,22.1779643 22.8356382,21.934175 22.4648037,22.0062817 C22.0925957,22.0783884 21.8494931,22.4382352 21.920913,22.8111299 C23.4028776,30.468176 21.8426258,36.4743217 16.5396922,43.5428396 C16.3116976,43.8463745 16.3735034,44.2769546 16.6770383,44.5035757 C16.8006498,44.5962843 16.9455499,44.6409218 17.0883899,44.6409218 C17.297156,44.642982 17.5031752,44.5482132 17.6377744,44.367603 M20.6435941,44.9073733 C26.0083335,37.3238074 27.600175,30.4812238 25.9657562,22.0296305 C25.7913266,21.1272665 25.275592,20.3471406 24.5146945,19.8327794 C23.7558572,19.3197916 22.8418188,19.1336876 21.9428884,19.3088039 C21.0425846,19.4832335 20.2638321,19.9975947 19.7501577,20.7584922 C19.2371699,21.5187029 19.0503792,22.4341148 19.2248088,23.3344186 C19.8366857,26.4995599 19.8387459,29.3591061 19.2316761,32.076499 C19.1492684,32.4466468 19.3820701,32.8133609 19.7522178,32.8957686 C20.1244258,32.978863 20.4897665,32.7453746 20.5721742,32.3752268 C21.2211346,29.4710431 21.2218213,26.4267665 20.5735476,23.0720875 C20.4691646,22.5309438 20.5811017,21.9815594 20.888757,21.5248835 C21.1964123,21.0682077 21.6633891,20.7598656 22.2045328,20.6547959 C22.7449897,20.5504128 23.2916273,20.6616632 23.7462429,20.9686317 C24.2036055,21.2769738 24.5126343,21.745324 24.6190775,22.2878412 C26.175209,30.3363237 24.6513539,36.8643846 19.5235366,44.1121393 C19.3044695,44.4218548 19.3779497,44.8496879 19.6876652,45.0701284 C19.8085298,45.155283 19.9465626,45.1964869 20.0839087,45.1964869 C20.2974819,45.1964869 20.5096817,45.0962242 20.6435941,44.9073733 M14.8695634,43.4652391 C16.9304419,40.8213263 18.4206472,38.3690114 19.4246474,35.966141 C19.570921,35.6159084 19.4054189,35.2134843 19.0551863,35.0672107 C18.7035802,34.9195636 18.3025296,35.0850657 18.1569427,35.435985 C17.2010137,37.7241713 15.7712406,40.0741634 13.7865892,42.6198737 C13.5531008,42.9192882 13.6066658,43.3498683 13.9060804,43.58267 C14.0317521,43.6808725 14.1800859,43.7282569 14.3277329,43.7282569 C14.5323787,43.7296303 14.7342774,43.6389819 14.8695634,43.4652391 M12.3286602,42.2483525 C17.253892,36.1000535 18.9302013,31.1198833 18.1129919,25.0601726 C18.0621739,24.6831575 17.7140015,24.4242601 17.34042,24.4716445 C16.9647784,24.5224625 16.7010738,24.867888 16.7518919,25.2442164 C17.5237771,30.9639954 15.9827537,35.4916102 11.2573605,41.3906259 C11.0197517,41.6872936 11.0678228,42.1199338 11.3638037,42.3554824 C11.4901622,42.4571185 11.6419296,42.5065632 11.7930103,42.5065632 C11.9935357,42.5058764 12.1933743,42.4193484 12.3286602,42.2483525 M28.624777,28.1559541 C29.004539,28.1559541 29.3067005,27.857913 29.3012067,27.4802112 C29.2716772,25.5470646 29.058104,23.550052 28.6611738,21.5063418 C28.0994281,18.6028449 25.5509709,16.4959554 22.5987161,16.4959554 C22.203846,16.4959554 21.8069158,16.5344123 21.4195997,16.609266 C19.7982288,16.9237886 18.3966117,17.8508749 17.4722723,19.2195289 C17.0286443,19.8774168 16.7189288,20.6039778 16.5520533,21.3792966 C16.4723926,21.7501312 16.7079412,22.1154718 17.0787757,22.1951326 C17.4509836,22.2727331 17.8149509,22.038558 17.8946116,21.6684102 C18.0244037,21.064774 18.2661329,20.4982213 18.6108716,19.986607 C19.3291918,18.9221746 20.41972,18.199734 21.6812441,17.9552579 C21.9827188,17.8968858 22.2917476,17.8646095 22.5987161,17.8646095 C24.8937698,17.8646095 26.876361,19.4990283 27.3131216,21.7569985 C27.6928836,23.7224214 27.8995895,25.648014 27.9277455,27.5008131 C27.9332393,27.8764547 28.2388344,28.1566408 28.6144761,28.1566408 C28.617223,28.1559541 28.6213434,28.1559541 28.624777,28.1559541 M23.8794687,45.0117563 C26.8626263,40.4182154 28.5746457,35.9118893 29.1123557,31.235254 C29.154933,30.8582389 28.8857347,30.5176206 28.5087196,30.4750433 C28.130331,30.432466 27.7910861,30.7023511 27.7485088,31.0786795 C27.2348343,35.5389946 25.5921748,39.8516627 22.7271348,44.26322 C22.5204288,44.581863 22.6110773,45.0069492 22.9290335,45.2136551 C23.045091,45.2885088 23.1748831,45.3242188 23.302615,45.3242188 C23.5271759,45.3242188 23.7489899,45.2143419 23.8794687,45.0117563 M27.3714937,44.5983445 C31.754895,37.0861986 33.0225997,29.5822935 31.3593382,20.9830531 C30.8710728,18.4620651 29.3142545,16.2686476 27.0899342,14.9666064 C26.7630504,14.7743219 26.3420846,14.8841987 26.1511735,15.2117692 C25.9595756,15.5393397 26.0694525,15.9596188 26.3963363,16.1512167 C28.2800383,17.254106 29.5971875,19.1103388 30.0112861,21.2440107 C31.6065612,29.4971389 30.3924216,36.6981958 26.1861967,43.9061201 C25.9959723,44.2343773 26.106536,44.6546564 26.432733,44.8448808 C26.5412364,44.9094335 26.6607276,44.9389629 26.7788452,44.9389629 C27.0137071,44.9389629 27.2437618,44.818785 27.3714937,44.5983445 M10.0150649,40.7437257 C14.9478507,34.6634131 16.3474076,30.157087 15.1799656,24.1179782 C14.7960832,22.1347003 15.2067481,20.1212062 16.3371066,18.4483305 C17.4674652,16.7747681 19.1801713,15.6423493 21.161389,15.2577802 C21.8385054,15.1252412 22.5410308,15.0922781 23.2215808,15.1465298 C23.5958489,15.176746 23.9309735,14.8951864 23.9611896,14.5174846 C23.9920925,14.1397828 23.710533,13.8080919 23.3321444,13.7778758 C22.5279829,13.7126364 21.6984123,13.7538402 20.8990579,13.9090413 C18.5579934,14.3622835 16.5335116,15.7014081 15.1985073,17.6785055 C13.8635031,19.6549161 13.3779845,22.0344376 13.8312267,24.3775624 C14.9100805,29.9586219 13.5867506,34.1593529 8.94857225,39.876385 C8.70959001,40.1716792 8.75422749,40.6043194 9.04883492,40.8419282 C9.17588008,40.9449378 9.329021,40.9964426 9.48078846,40.9964426 C9.68131379,40.9978161 9.8790922,40.911288 10.0150649,40.7437257 M31.1121152,43.4920215 C32.1394642,41.4359502 32.9669745,39.3160128 33.5719842,37.1905817 C33.6749938,36.8259277 33.4641675,36.4461657 33.0995135,36.3424694 C32.7341729,36.2373996 32.3544109,36.4502861 32.2514013,36.81494 C31.6704272,38.8586503 30.8751932,40.8975534 29.8849277,42.8773977 C29.7153052,43.2166426 29.8519646,43.6293677 30.1912095,43.7989901 C30.2907854,43.8470613 30.3951685,43.8704101 30.4981781,43.8704101 C30.7495215,43.8717836 30.9912506,43.7337507 31.1121152,43.4920215 M34.390567,33.5481626 C35.0676834,29.4106109 34.9584932,25.1288456 34.0554425,20.4611378 C32.9944438,14.9775941 28.1770287,10.9973036 22.6014631,10.9973036 C21.8549869,10.9973036 21.1071373,11.0694103 20.3792029,11.2115636 C17.3170712,11.8035253 14.6697248,13.5546883 12.9240556,16.1416025 C11.1776997,18.7271431 10.5431607,21.8387194 11.1358092,24.903598 C11.4352237,26.4514888 11.5155712,27.750783 11.3892128,28.9937654 C11.3507558,29.3714672 11.6254481,29.7079652 12.0024632,29.7471088 C12.3856588,29.7780117 12.716663,29.5108735 12.7551199,29.1331717 C12.8965864,27.7528432 12.8100583,26.3258171 12.484548,24.6419537 C11.9605726,21.9376086 12.5209448,19.1920597 14.0619682,16.910054 C15.6023049,14.6280482 17.9378756,13.0829044 20.6408472,12.5603024 C21.2829403,12.4346307 21.9428884,12.3714515 22.6007763,12.3714515 C27.521201,12.3714515 31.7713766,15.8833917 32.7073904,20.7227822 C33.5788515,25.2284216 33.6852947,29.351552 33.0349609,33.3270354 C32.9738418,33.7013036 33.2265587,34.0542831 33.6022003,34.1147154 C33.6399705,34.1215827 33.6756805,34.1243296 33.7134507,34.1243296 C34.0437681,34.1229561 34.3356286,33.8846606 34.390567,33.5481626 M7.91847637,38.9650935 C9.73693896,36.7119305 11.00121,34.712171 11.7820227,32.853878 C11.928983,32.5036454 11.7648544,32.1012213 11.4146218,31.9542609 C11.0637025,31.8079873 10.6626518,31.9714292 10.5156915,32.3202884 C9.78569684,34.0584035 8.5859785,35.9496595 6.84923685,38.1025599 C6.61094133,38.397854 6.65763901,38.8304943 6.95224643,39.0681031 C7.07929159,39.1697392 7.23174578,39.2198706 7.38282651,39.2198706 C7.58403857,39.2198706 7.78319044,39.1326558 7.91847637,38.9650935 M6.04095494,36.9131425 C10.5211853,31.2558559 10.4044411,28.3605998 9.7870703,25.1638689 C9.12437528,21.7398302 9.83376798,18.2615398 11.7847696,15.370404 C12.4852348,14.3334408 13.3264797,13.4036076 14.2865291,12.6076868 C14.5783896,12.365271 14.6189067,11.9326307 14.3764908,11.6407702 C14.1340749,11.3489097 13.7014346,11.3090793 13.4095741,11.5508085 C12.3492621,12.4298236 11.4194289,13.4564859 10.6461703,14.6019525 C8.48983622,17.7966232 7.70627662,21.6402543 8.43833142,25.4234531 C9.00694435,28.3647202 9.09072548,30.8493114 4.96416138,36.0595364 C4.72861279,36.3575775 4.77874413,36.7888443 5.0767852,37.0243929 C5.20314363,37.1246555 5.3528509,37.1727267 5.50255816,37.1727267 C5.70514369,37.1734134 5.90566902,37.0841384 6.04095494,36.9131425 M35.0580692,41.448998 C37.7418123,34.6778345 38.2795224,27.8428049 36.7515468,19.9378491 C36.3601104,17.9099337 35.5538887,16.0269184 34.3569172,14.3403081 C34.1371635,14.0312794 33.7093303,13.9584859 33.3989281,14.1782397 C33.0898993,14.3979935 33.0164191,14.8265134 33.2368597,15.1362289 C34.3198338,16.6614575 35.0491417,18.3652361 35.4028079,20.1994935 C36.8792787,27.8352509 36.3642307,34.4264911 33.781437,40.9442511 C33.6420307,41.2965439 33.8144001,41.6962211 34.1673796,41.8356274 C34.250474,41.8685904 34.3349419,41.8836985 34.4194097,41.8836985 C34.6927285,41.8836985 34.9516259,41.7195699 35.0580692,41.448998 M31.8462302,12.5074242 C32.0879594,12.214877 32.0460688,11.78155 31.7521481,11.5405075 C29.175535,9.41713654 25.9259258,8.24763435 22.6000896,8.24763435 C21.6771237,8.24763435 20.753471,8.3362226 19.8559142,8.51202563 C18.7571452,8.72491211 17.6803517,9.06621721 16.6564364,9.52770017 C16.3110109,9.68358801 16.1564965,10.0901325 16.3123843,10.435558 C16.4675854,10.7809835 16.8734432,10.9354979 17.2202422,10.77961 C18.1473285,10.3620778 19.1224859,10.0530491 20.1182453,9.86007777 C20.9299608,9.701443 21.7650252,9.62109553 22.6000896,9.62109553 C25.6072828,9.62109553 28.5478632,10.6793474 30.8786268,12.6001328 C31.0063587,12.7058893 31.1601864,12.7573941 31.3147007,12.7573941 C31.5131659,12.7573941 31.7088841,12.6722395 31.8462302,12.5074242 M39.2224035,22.2191681 C39.5973584,22.1614828 39.8548823,21.8105634 39.7965102,21.4356085 C39.6941874,20.7674197 39.5801901,20.0951104 39.4483378,19.4159339 C37.8880859,11.3516566 30.8030865,5.49865181 22.6000896,5.49865181 C21.5020074,5.49865181 20.4025517,5.60440832 19.3346857,5.81317442 C14.8324799,6.68532227 10.9387175,9.25987524 8.37103183,13.0629892 C7.00169104,15.0909047 6.09658012,17.33308 5.68042139,19.7263361 C5.61518198,20.0999176 5.86583865,20.455644 6.23942008,20.5208834 C6.61712191,20.5861228 6.96872797,20.3354661 7.03396737,19.9618847 C7.41647631,17.7602264 8.24948051,15.6979745 9.50894441,13.8314408 C11.8712976,10.3325484 15.4532844,7.96401462 19.59633,7.16122656 C20.5797282,6.96962873 21.5899089,6.87211299 22.6000896,6.87211299 C30.146572,6.87211299 36.6650187,12.2574542 38.1002857,19.6768915 C38.2280176,20.3395865 38.3392679,20.9947275 38.4388439,21.6464348 C38.4903486,21.9856797 38.7835826,22.2280956 39.1166469,22.2280956 C39.1516702,22.2274089 39.1866935,22.224662 39.2224035,22.2191681 M39.0912379,38.0853916 C40.1975609,33.9210574 40.5663352,29.6770623 40.2215965,25.1109906 C40.1927538,24.7326021 39.8631231,24.4510426 39.486108,24.477825 C39.1070327,24.505981 38.823413,24.8356117 38.8522557,25.2133135 C39.1860067,29.6241841 38.8302803,33.7191586 37.7644744,37.7317254 C37.6669587,38.0977528 37.8860257,38.4747679 38.2520531,38.5722836 C38.311112,38.5873917 38.3715443,38.5949457 38.4292296,38.5949457 C38.7327645,38.5956325 39.0102037,38.3923602 39.0912379,38.0853916 M4.394175,34.5562831 C7.90748868,29.9153578 7.5105584,27.8606599 7.09027928,25.683724 C6.94881278,24.9557895 6.85816434,24.2058797 6.81970743,23.4518496 C6.8011657,23.0720875 6.4845829,22.7809138 6.09932704,22.800829 C5.72093849,22.8200574 5.42907799,23.1428208 5.44830645,23.5212093 C5.48951028,24.3384187 5.58839949,25.1542547 5.74154041,25.9446816 C6.13297684,27.9719103 6.44269234,29.573366 3.29883971,33.7260259 C3.07015842,34.0281873 3.12921726,34.4594541 3.43206544,34.6874487 C3.55636368,34.7815308 3.70195057,34.826855 3.84616399,34.826855 C4.05355663,34.8289152 4.25888907,34.7348331 4.394175,34.5562831 M3.00011191,31.8052404 C4.92707793,28.9669829 4.67985492,27.6876038 4.394175,26.2070127 C3.45266736,21.3415265 4.46147459,16.3998132 7.23380597,12.2917908 C10.0068241,8.18376841 14.2123622,5.40319626 19.0757882,4.46168862 C20.9979471,4.08536026 23.0107545,4.01806067 25.0043334,4.28039175 C25.3827219,4.32502924 25.7260872,4.06475835 25.7741584,3.68911671 C25.823603,3.31278835 25.5598984,2.9680496 25.1828833,2.918605 C23.0444043,2.63704545 20.878456,2.70915217 18.8141439,3.11363648 C13.5915578,4.12519064 9.07424395,7.11178196 6.09589339,11.524026 C3.11822957,15.9355833 2.0345687,21.243324 3.04612285,26.468657 C3.30227336,27.7940471 3.47120909,28.6682551 1.86494624,31.034042 C1.65137303,31.3478778 1.7337807,31.775711 2.04761658,31.9885975 C2.16573424,32.068945 2.29964671,32.1074019 2.43287244,32.1074019 C2.65125277,32.1067151 2.86688617,32.0016454 3.00011191,31.8052404 M42.2124284,33.2638562 C42.1904531,33.2638562 42.1671042,33.2624827 42.1416952,33.2611093 C41.7646801,33.2212789 41.4906746,32.8847809 41.527758,32.5070791 C41.9576514,28.2898665 41.7166089,23.9229467 40.7957032,19.1536028 C39.5238782,12.5857115 34.7847504,7.19006925 28.4276854,5.07150539 C28.0685253,4.95132753 27.8734938,4.56263802 27.9936716,4.20279119 C28.1138495,3.8436311 28.4997921,3.64791288 28.8623858,3.76877746 C35.6878011,6.04322917 40.778535,11.8392353 42.1437554,18.8933319 C43.0921303,23.7965883 43.3379799,28.2953604 42.8950386,32.6471721 C42.8607021,33.0008384 42.5612876,33.2638562 42.2124284,33.2638562" id="icon"></path>
        </g>
    </g>
</svg>